<svg width="160" height="59" viewBox="0 0 160 59" fill="none" xmlns="http://www.w3.org/2000/svg">
<mask id="path-1-inside-1_2_293" fill="white">
<path d="M0 0H31V30H0V0Z"/>
</mask>
<path d="M30.5 0V30H31.5V0H30.5Z" fill="white" mask="url(#path-1-inside-1_2_293)"/>
<path d="M10.32 16.688H8.448V11.192H6.432L6.192 16.688H2.784L6.024 6.2H3.696L0.216 17.576V18.824H6.168V23H8.448V18.824H10.32V16.688ZM12.6874 23.264C13.5514 23.264 14.1514 22.688 14.1514 21.8C14.1514 20.936 13.5514 20.36 12.6874 20.36C11.8234 20.36 11.2234 20.936 11.2234 21.8C11.2234 22.688 11.8234 23.264 12.6874 23.264ZM20.5194 12.896L23.7354 7.76V6.2H15.9594V8.336H20.9034L17.9514 13.088V14.72H19.4874C20.9514 14.72 21.8154 15.368 21.8154 17.216V18.248C21.8154 20.168 21.1674 21.008 19.7514 21.008C18.5274 21.008 17.7834 20.336 17.6874 18.464H15.3834C15.4554 21.632 17.1354 23.264 19.7754 23.264C22.6554 23.264 24.1434 21.56 24.1434 18.296V17.168C24.1434 14.84 22.8954 13.016 20.5194 12.896Z" fill="#E0E0E0"/>
<path d="M57.2208 10.4033L50.9517 9.82187L48.4614 4.03921C48.287 3.63431 47.7129 3.63431 47.5386 4.03921L45.0483 9.82182L38.7792 10.4033C38.3402 10.444 38.1628 10.99 38.494 11.2809L43.2241 15.4362L41.8398 21.5782C41.7429 22.0083 42.2073 22.3457 42.5864 22.1207L48 18.9062L53.4136 22.1207C53.7927 22.3458 54.2571 22.0083 54.1602 21.5782L52.7758 15.4362L57.506 11.2809C57.8371 10.99 57.6597 10.444 57.2208 10.4033Z" fill="#FFDC64"/>
<path d="M49.3669 6.14203L48.4613 4.03921C48.2869 3.63431 47.7129 3.63431 47.5385 4.03921L45.0483 9.82182L38.7792 10.4033C38.3402 10.444 38.1628 10.99 38.494 11.2809L43.2241 15.4362L41.8398 21.5782C41.7429 22.0083 42.2073 22.3457 42.5864 22.1207L43.3069 21.6928C44.4881 14.0466 47.8088 8.43366 49.3669 6.14203Z" fill="#FFC850"/>
<path d="M82.2208 10.4033L75.9517 9.82187L73.4614 4.03921C73.287 3.63431 72.7129 3.63431 72.5386 4.03921L70.0483 9.82182L63.7792 10.4033C63.3402 10.444 63.1628 10.99 63.494 11.2809L68.2241 15.4362L66.8398 21.5782C66.7429 22.0083 67.2073 22.3457 67.5864 22.1207L73 18.9062L78.4136 22.1207C78.7927 22.3458 79.2571 22.0083 79.1602 21.5782L77.7758 15.4362L82.506 11.2809C82.8371 10.99 82.6597 10.444 82.2208 10.4033Z" fill="#FFDC64"/>
<path d="M74.3669 6.14203L73.4613 4.03921C73.2869 3.63431 72.7129 3.63431 72.5385 4.03921L70.0483 9.82182L63.7792 10.4033C63.3402 10.444 63.1628 10.99 63.494 11.2809L68.2241 15.4362L66.8398 21.5782C66.7429 22.0083 67.2073 22.3457 67.5864 22.1207L68.3069 21.6928C69.4881 14.0466 72.8088 8.43366 74.3669 6.14203Z" fill="#FFC850"/>
<path d="M107.221 10.4033L100.952 9.82187L98.4614 4.03921C98.287 3.63431 97.7129 3.63431 97.5386 4.03921L95.0483 9.82182L88.7792 10.4033C88.3402 10.444 88.1628 10.99 88.494 11.2809L93.2241 15.4362L91.8398 21.5782C91.7429 22.0083 92.2073 22.3457 92.5864 22.1207L98 18.9062L103.414 22.1207C103.793 22.3458 104.257 22.0083 104.16 21.5782L102.776 15.4362L107.506 11.2809C107.837 10.99 107.66 10.444 107.221 10.4033Z" fill="#FFDC64"/>
<path d="M99.3669 6.14203L98.4613 4.03921C98.2869 3.63431 97.7129 3.63431 97.5385 4.03921L95.0483 9.82182L88.7792 10.4033C88.3402 10.444 88.1628 10.99 88.494 11.2809L93.2241 15.4362L91.8398 21.5782C91.7429 22.0083 92.2073 22.3457 92.5864 22.1207L93.3069 21.6928C94.4881 14.0466 97.8088 8.43366 99.3669 6.14203Z" fill="#FFC850"/>
<path d="M132.221 10.4033L125.952 9.82187L123.461 4.03921C123.287 3.63431 122.713 3.63431 122.539 4.03921L120.048 9.82182L113.779 10.4033C113.34 10.444 113.163 10.99 113.494 11.2809L118.224 15.4362L116.84 21.5782C116.743 22.0083 117.207 22.3457 117.586 22.1207L123 18.9062L128.414 22.1207C128.793 22.3458 129.257 22.0083 129.16 21.5782L127.776 15.4362L132.506 11.2809C132.837 10.99 132.66 10.444 132.221 10.4033Z" fill="#FFDC64"/>
<path d="M124.367 6.14203L123.461 4.03921C123.287 3.63431 122.713 3.63431 122.539 4.03921L120.048 9.82182L113.779 10.4033C113.34 10.444 113.163 10.99 113.494 11.2809L118.224 15.4362L116.84 21.5782C116.743 22.0083 117.207 22.3457 117.586 22.1207L118.307 21.6928C119.488 14.0466 122.809 8.43366 124.367 6.14203Z" fill="#FFC850"/>
<path d="M157.221 10.4033L150.952 9.82187L148.461 4.03921C148.287 3.63431 147.713 3.63431 147.539 4.03921L145.048 9.82182L138.779 10.4033C138.34 10.444 138.163 10.99 138.494 11.2809L143.224 15.4362L141.84 21.5782C141.743 22.0083 142.207 22.3457 142.586 22.1207L148 18.9062L153.414 22.1207C153.793 22.3458 154.257 22.0083 154.16 21.5782L152.776 15.4362L157.506 11.2809C157.837 10.99 157.66 10.444 157.221 10.4033Z" fill="#FFDC64"/>
<path d="M149.367 6.14203L148.461 4.03921C148.287 3.63431 147.713 3.63431 147.539 4.03921L145.048 9.82182L138.779 10.4033C138.34 10.444 138.163 10.99 138.494 11.2809L143.224 15.4362L141.84 21.5782C141.743 22.0083 142.207 22.3457 142.586 22.1207L143.307 21.6928C144.488 14.0466 147.809 8.43366 149.367 6.14203Z" fill="#FFC850"/>
<path d="M11.136 50.976C11.136 52.096 11.2747 53.192 11.552 54.264C11.8293 55.3307 12.232 56.336 12.76 57.28C12.808 57.376 12.8373 57.4613 12.848 57.536C12.8587 57.6107 12.8533 57.6747 12.832 57.728C12.8107 57.7867 12.7787 57.8347 12.736 57.872C12.6987 57.9093 12.656 57.944 12.608 57.976L11.848 58.448C11.448 57.8347 11.1093 57.224 10.832 56.616C10.5547 56.0133 10.328 55.4053 10.152 54.792C9.976 54.1733 9.848 53.5493 9.768 52.92C9.688 52.2853 9.648 51.6373 9.648 50.976C9.648 50.32 9.688 49.6773 9.768 49.048C9.848 48.4133 9.976 47.7893 10.152 47.176C10.328 46.5573 10.5547 45.944 10.832 45.336C11.1093 44.728 11.448 44.1173 11.848 43.504L12.608 43.976C12.656 44.008 12.6987 44.0427 12.736 44.08C12.7787 44.1173 12.8107 44.1653 12.832 44.224C12.8533 44.2773 12.8587 44.3413 12.848 44.416C12.8373 44.4907 12.808 44.576 12.76 44.672C12.232 45.6213 11.8293 46.6293 11.552 47.696C11.2747 48.7627 11.136 49.856 11.136 50.976ZM21.5598 54.696V56H15.2798V54.696H17.6798V47.48C17.6798 47.224 17.6878 46.9627 17.7038 46.696L15.8558 48.256C15.7758 48.32 15.6931 48.3627 15.6078 48.384C15.5278 48.4 15.4504 48.4 15.3758 48.384C15.3064 48.368 15.2424 48.344 15.1838 48.312C15.1304 48.2747 15.0878 48.2347 15.0558 48.192L14.5197 47.44L17.9918 44.456H19.3918V54.696H21.5598ZM30.841 54.696V56H24.561V54.696H26.961V47.48C26.961 47.224 26.969 46.9627 26.985 46.696L25.137 48.256C25.057 48.32 24.9743 48.3627 24.889 48.384C24.809 48.4 24.7317 48.4 24.657 48.384C24.5877 48.368 24.5237 48.344 24.465 48.312C24.4117 48.2747 24.369 48.2347 24.337 48.192L23.801 47.44L27.273 44.456H28.673V54.696H30.841ZM32.6903 55.008C32.6903 54.8533 32.7169 54.7093 32.7703 54.576C32.8289 54.4373 32.9063 54.3173 33.0023 54.216C33.1036 54.1147 33.2209 54.0347 33.3543 53.976C33.4929 53.9173 33.6396 53.888 33.7943 53.888C33.9489 53.888 34.0929 53.9173 34.2263 53.976C34.3649 54.0347 34.4849 54.1147 34.5863 54.216C34.6876 54.3173 34.7676 54.4373 34.8263 54.576C34.8849 54.7093 34.9143 54.8533 34.9143 55.008C34.9143 55.168 34.8849 55.3147 34.8263 55.448C34.7676 55.5813 34.6876 55.6987 34.5863 55.8C34.4849 55.9013 34.3649 55.9787 34.2263 56.032C34.0929 56.0907 33.9489 56.12 33.7943 56.12C33.6396 56.12 33.4929 56.0907 33.3543 56.032C33.2209 55.9787 33.1036 55.9013 33.0023 55.8C32.9063 55.6987 32.8289 55.5813 32.7703 55.448C32.7169 55.3147 32.6903 55.168 32.6903 55.008ZM40.3115 54.704C40.6582 54.704 40.9755 54.648 41.2635 54.536C41.5515 54.4187 41.7968 54.2587 41.9995 54.056C42.2075 53.8533 42.3675 53.6133 42.4795 53.336C42.5915 53.0587 42.6475 52.7573 42.6475 52.432C42.6475 52.08 42.5915 51.7653 42.4795 51.488C42.3728 51.2053 42.2182 50.968 42.0155 50.776C41.8182 50.584 41.5782 50.4373 41.2955 50.336C41.0182 50.2293 40.7115 50.176 40.3755 50.176C40.0288 50.176 39.7142 50.2347 39.4315 50.352C39.1542 50.4693 38.9168 50.6293 38.7195 50.832C38.5222 51.0347 38.3702 51.272 38.2635 51.544C38.1568 51.816 38.1035 52.104 38.1035 52.408C38.1035 52.7493 38.1515 53.0613 38.2475 53.344C38.3435 53.6267 38.4848 53.8693 38.6715 54.072C38.8582 54.2693 39.0875 54.424 39.3595 54.536C39.6368 54.648 39.9542 54.704 40.3115 54.704ZM39.6795 48.72C39.5942 48.8267 39.5115 48.928 39.4315 49.024C39.3568 49.12 39.2822 49.216 39.2075 49.312C39.4528 49.1733 39.7222 49.064 40.0155 48.984C40.3088 48.904 40.6235 48.864 40.9595 48.864C41.4075 48.864 41.8368 48.9387 42.2475 49.088C42.6582 49.232 43.0182 49.4507 43.3275 49.744C43.6422 50.032 43.8928 50.392 44.0795 50.824C44.2662 51.2507 44.3595 51.744 44.3595 52.304C44.3595 52.8373 44.2608 53.336 44.0635 53.8C43.8715 54.264 43.5995 54.6693 43.2475 55.016C42.8955 55.3573 42.4715 55.6293 41.9755 55.832C41.4848 56.0293 40.9408 56.128 40.3435 56.128C39.7462 56.128 39.2075 56.032 38.7275 55.84C38.2475 55.648 37.8368 55.3787 37.4955 55.032C37.1595 54.68 36.9008 54.2587 36.7195 53.768C36.5382 53.2773 36.4475 52.7307 36.4475 52.128C36.4475 51.6053 36.5595 51.0587 36.7835 50.488C37.0075 49.9173 37.3542 49.3173 37.8235 48.688L40.6555 44.888C40.7408 44.776 40.8635 44.68 41.0235 44.6C41.1888 44.52 41.3728 44.48 41.5755 44.48H43.0955L39.6795 48.72ZM47.7368 44.16V51.024H48.1048C48.2221 51.024 48.3181 51.008 48.3928 50.976C48.4674 50.944 48.5448 50.8773 48.6248 50.776L50.9128 48.16C50.9928 48.0533 51.0808 47.9733 51.1768 47.92C51.2728 47.8667 51.3954 47.84 51.5448 47.84H53.1048L50.3528 50.944C50.1928 51.152 50.0168 51.3173 49.8248 51.44C49.9314 51.5147 50.0248 51.6 50.1048 51.696C50.1848 51.7867 50.2621 51.8907 50.3368 52.008L53.2728 56H51.7368C51.5981 56 51.4781 55.9787 51.3768 55.936C51.2808 55.888 51.1954 55.8027 51.1208 55.68L48.7608 52.48C48.6808 52.3573 48.6008 52.28 48.5208 52.248C48.4408 52.2107 48.3208 52.192 48.1608 52.192H47.7368V56H46.0168V44.16H47.7368ZM66.1241 46.04H62.5321V56H60.6681V46.04H57.0681V44.48H66.1241V46.04ZM68.9979 47.712C69.6005 47.712 70.1445 47.8107 70.6299 48.008C71.1205 48.2053 71.5365 48.4853 71.8779 48.848C72.2245 49.2107 72.4912 49.6507 72.6779 50.168C72.8645 50.6853 72.9579 51.2667 72.9579 51.912C72.9579 52.5573 72.8645 53.1387 72.6779 53.656C72.4912 54.1733 72.2245 54.616 71.8779 54.984C71.5365 55.3467 71.1205 55.6267 70.6299 55.824C70.1445 56.0213 69.6005 56.12 68.9979 56.12C68.3899 56.12 67.8405 56.0213 67.3499 55.824C66.8645 55.6267 66.4485 55.3467 66.1019 54.984C65.7552 54.616 65.4885 54.1733 65.3019 53.656C65.1152 53.1387 65.0219 52.5573 65.0219 51.912C65.0219 51.2667 65.1152 50.6853 65.3019 50.168C65.4885 49.6507 65.7552 49.2107 66.1019 48.848C66.4485 48.4853 66.8645 48.2053 67.3499 48.008C67.8405 47.8107 68.3899 47.712 68.9979 47.712ZM68.9979 54.776C69.7339 54.776 70.2805 54.5307 70.6379 54.04C71.0005 53.544 71.1819 52.8373 71.1819 51.92C71.1819 51.0027 71.0005 50.296 70.6379 49.8C70.2805 49.2987 69.7339 49.048 68.9979 49.048C68.2512 49.048 67.6965 49.2987 67.3339 49.8C66.9712 50.296 66.7899 51.0027 66.7899 51.92C66.7899 52.8373 66.9712 53.544 67.3339 54.04C67.6965 54.5307 68.2512 54.776 68.9979 54.776ZM77.0703 56.128C76.3929 56.128 75.8703 55.9387 75.5023 55.56C75.1396 55.176 74.9583 54.6373 74.9583 53.944V49.192H74.0623C73.9663 49.192 73.8836 49.1627 73.8143 49.104C73.7449 49.04 73.7103 48.9467 73.7103 48.824V48.128L75.0303 47.936L75.4062 45.576C75.4329 45.4853 75.4783 45.4133 75.5423 45.36C75.6063 45.3013 75.6916 45.272 75.7983 45.272H76.6783V47.952H78.9423V49.192H76.6783V53.824C76.6783 54.1173 76.7503 54.3413 76.8943 54.496C77.0383 54.6507 77.2303 54.728 77.4703 54.728C77.6036 54.728 77.7183 54.712 77.8142 54.68C77.9103 54.6427 77.9929 54.6053 78.0623 54.568C78.1316 54.5253 78.1903 54.488 78.2383 54.456C78.2916 54.4187 78.3423 54.4 78.3903 54.4C78.4863 54.4 78.5636 54.4533 78.6223 54.56L79.1343 55.4C78.8676 55.6347 78.5529 55.816 78.1903 55.944C77.8276 56.0667 77.4543 56.128 77.0703 56.128ZM84.658 52.432C84.0447 52.4533 83.5273 52.504 83.106 52.584C82.6847 52.6587 82.3433 52.7573 82.082 52.88C81.8207 52.9973 81.6313 53.1387 81.514 53.304C81.402 53.4693 81.346 53.6507 81.346 53.848C81.346 54.04 81.3753 54.2053 81.434 54.344C81.498 54.4773 81.5833 54.5893 81.69 54.68C81.802 54.7653 81.93 54.8293 82.074 54.872C82.2233 54.9093 82.386 54.928 82.562 54.928C83.01 54.928 83.394 54.8453 83.714 54.68C84.0393 54.5093 84.354 54.264 84.658 53.944V52.432ZM80.098 48.976C81.0207 48.1173 82.1193 47.688 83.394 47.688C83.8633 47.688 84.2793 47.7653 84.642 47.92C85.01 48.0693 85.3167 48.2827 85.562 48.56C85.8127 48.8373 86.002 49.168 86.13 49.552C86.2633 49.9307 86.33 50.352 86.33 50.816V56H85.562C85.3967 56 85.2713 55.976 85.186 55.928C85.1007 55.8747 85.0287 55.7707 84.97 55.616L84.802 54.952C84.594 55.1387 84.3887 55.3067 84.186 55.456C83.9833 55.6 83.7727 55.7227 83.554 55.824C83.3407 55.9253 83.1087 56 82.858 56.048C82.6127 56.1013 82.3407 56.128 82.042 56.128C81.7113 56.128 81.402 56.0827 81.114 55.992C80.8313 55.9013 80.586 55.7653 80.378 55.584C80.17 55.3973 80.0047 55.168 79.882 54.896C79.7647 54.624 79.706 54.304 79.706 53.936C79.706 53.6213 79.7887 53.3147 79.954 53.016C80.1247 52.7173 80.402 52.4507 80.786 52.216C81.1753 51.976 81.6847 51.7787 82.314 51.624C82.9487 51.4693 83.73 51.3813 84.658 51.36V50.816C84.658 50.2293 84.5327 49.792 84.282 49.504C84.0313 49.216 83.6633 49.072 83.178 49.072C82.8473 49.072 82.57 49.1147 82.346 49.2C82.122 49.28 81.9273 49.368 81.762 49.464C81.5967 49.56 81.45 49.6507 81.322 49.736C81.194 49.816 81.058 49.856 80.914 49.856C80.7967 49.856 80.6953 49.8267 80.61 49.768C80.53 49.704 80.4633 49.6267 80.41 49.536L80.098 48.976ZM90.0969 44.16V56H88.3769V44.16H90.0969ZM99.8683 50C100.295 50 100.668 49.9493 100.988 49.848C101.308 49.7413 101.575 49.5947 101.788 49.408C102.002 49.2213 102.162 49 102.268 48.744C102.375 48.4827 102.428 48.1947 102.428 47.88C102.428 47.2507 102.22 46.7707 101.804 46.44C101.388 46.1093 100.759 45.944 99.9163 45.944H98.3963V50H99.8683ZM105.292 56H103.62C103.29 56 103.05 55.872 102.9 55.616L100.212 51.736C100.122 51.6027 100.023 51.5067 99.9163 51.448C99.8096 51.3893 99.6496 51.36 99.4363 51.36H98.3963V56H96.5243V44.48H99.9163C100.674 44.48 101.324 44.5573 101.868 44.712C102.418 44.8667 102.868 45.088 103.22 45.376C103.572 45.6587 103.831 46 103.996 46.4C104.167 46.8 104.252 47.2453 104.252 47.736C104.252 48.136 104.191 48.5093 104.068 48.856C103.951 49.2027 103.778 49.5173 103.548 49.8C103.324 50.0827 103.047 50.328 102.716 50.536C102.386 50.744 102.01 50.9067 101.588 51.024C101.818 51.1627 102.015 51.3573 102.18 51.608L105.292 56ZM111.181 51C111.181 50.712 111.139 50.4453 111.053 50.2C110.973 49.9493 110.853 49.7333 110.693 49.552C110.533 49.3653 110.333 49.2213 110.093 49.12C109.859 49.0133 109.587 48.96 109.277 48.96C108.653 48.96 108.163 49.1387 107.805 49.496C107.448 49.8533 107.221 50.3547 107.125 51H111.181ZM107.077 52.056C107.099 52.52 107.171 52.9227 107.293 53.264C107.416 53.6 107.579 53.88 107.781 54.104C107.989 54.328 108.235 54.496 108.517 54.608C108.805 54.7147 109.125 54.768 109.477 54.768C109.813 54.768 110.104 54.7307 110.349 54.656C110.595 54.576 110.808 54.4907 110.989 54.4C111.171 54.304 111.325 54.2187 111.453 54.144C111.581 54.064 111.699 54.024 111.805 54.024C111.944 54.024 112.051 54.0773 112.125 54.184L112.613 54.816C112.411 55.056 112.181 55.2587 111.925 55.424C111.669 55.5893 111.397 55.7253 111.109 55.832C110.821 55.9333 110.525 56.0053 110.221 56.048C109.917 56.096 109.621 56.12 109.333 56.12C108.768 56.12 108.243 56.0267 107.757 55.84C107.277 55.648 106.859 55.368 106.501 55C106.149 54.632 105.872 54.176 105.669 53.632C105.472 53.088 105.373 52.4613 105.373 51.752C105.373 51.1867 105.461 50.6587 105.637 50.168C105.819 49.6773 106.075 49.2507 106.405 48.888C106.741 48.5253 107.147 48.24 107.621 48.032C108.101 47.8187 108.643 47.712 109.245 47.712C109.747 47.712 110.211 47.7947 110.637 47.96C111.064 48.12 111.432 48.3573 111.741 48.672C112.051 48.9867 112.291 49.3733 112.461 49.832C112.637 50.2853 112.725 50.8027 112.725 51.384C112.725 51.6507 112.696 51.8293 112.637 51.92C112.579 52.0107 112.472 52.056 112.317 52.056H107.077ZM121.326 47.84L118.046 56H116.494L113.214 47.84H114.63C114.763 47.84 114.872 47.8747 114.958 47.944C115.048 48.008 115.107 48.0853 115.134 48.176L116.942 52.928C117.016 53.152 117.083 53.3733 117.142 53.592C117.2 53.8107 117.251 54.032 117.294 54.256C117.336 54.032 117.387 53.8133 117.446 53.6C117.51 53.3813 117.579 53.1573 117.654 52.928L119.494 48.176C119.526 48.08 119.584 48 119.67 47.936C119.755 47.872 119.859 47.84 119.982 47.84H121.326ZM124.293 47.84V56H122.573V47.84H124.293ZM124.581 45.376C124.581 45.5307 124.549 45.6773 124.485 45.816C124.426 45.9547 124.344 46.0773 124.237 46.184C124.13 46.2853 124.005 46.368 123.861 46.432C123.722 46.4907 123.573 46.52 123.413 46.52C123.258 46.52 123.112 46.4907 122.973 46.432C122.84 46.368 122.722 46.2853 122.621 46.184C122.52 46.0773 122.437 45.9547 122.373 45.816C122.314 45.6773 122.285 45.5307 122.285 45.376C122.285 45.216 122.314 45.0667 122.373 44.928C122.437 44.7893 122.52 44.6693 122.621 44.568C122.722 44.4613 122.84 44.3787 122.973 44.32C123.112 44.256 123.258 44.224 123.413 44.224C123.573 44.224 123.722 44.256 123.861 44.32C124.005 44.3787 124.13 44.4613 124.237 44.568C124.344 44.6693 124.426 44.7893 124.485 44.928C124.549 45.0667 124.581 45.216 124.581 45.376ZM131.806 51C131.806 50.712 131.764 50.4453 131.678 50.2C131.598 49.9493 131.478 49.7333 131.318 49.552C131.158 49.3653 130.958 49.2213 130.718 49.12C130.484 49.0133 130.212 48.96 129.902 48.96C129.278 48.96 128.788 49.1387 128.43 49.496C128.073 49.8533 127.846 50.3547 127.75 51H131.806ZM127.702 52.056C127.724 52.52 127.796 52.9227 127.918 53.264C128.041 53.6 128.204 53.88 128.406 54.104C128.614 54.328 128.86 54.496 129.142 54.608C129.43 54.7147 129.75 54.768 130.102 54.768C130.438 54.768 130.729 54.7307 130.974 54.656C131.22 54.576 131.433 54.4907 131.614 54.4C131.796 54.304 131.95 54.2187 132.078 54.144C132.206 54.064 132.324 54.024 132.43 54.024C132.569 54.024 132.676 54.0773 132.75 54.184L133.238 54.816C133.036 55.056 132.806 55.2587 132.55 55.424C132.294 55.5893 132.022 55.7253 131.734 55.832C131.446 55.9333 131.15 56.0053 130.846 56.048C130.542 56.096 130.246 56.12 129.958 56.12C129.393 56.12 128.868 56.0267 128.382 55.84C127.902 55.648 127.484 55.368 127.126 55C126.774 54.632 126.497 54.176 126.294 53.632C126.097 53.088 125.998 52.4613 125.998 51.752C125.998 51.1867 126.086 50.6587 126.262 50.168C126.444 49.6773 126.7 49.2507 127.03 48.888C127.366 48.5253 127.772 48.24 128.246 48.032C128.726 47.8187 129.268 47.712 129.87 47.712C130.372 47.712 130.836 47.7947 131.262 47.96C131.689 48.12 132.057 48.3573 132.366 48.672C132.676 48.9867 132.916 49.3733 133.086 49.832C133.262 50.2853 133.35 50.8027 133.35 51.384C133.35 51.6507 133.321 51.8293 133.262 51.92C133.204 52.0107 133.097 52.056 132.942 52.056H127.702ZM146.325 47.84L143.709 56H142.341C142.181 56 142.069 55.896 142.005 55.688L140.381 50.608C140.338 50.464 140.298 50.32 140.261 50.176C140.229 50.032 140.199 49.8907 140.173 49.752C140.114 50.04 140.042 50.328 139.957 50.616L138.309 55.688C138.25 55.896 138.125 56 137.933 56H136.629L134.013 47.84H135.373C135.506 47.84 135.615 47.8747 135.701 47.944C135.791 48.008 135.85 48.0853 135.877 48.176L137.237 52.928C137.29 53.1467 137.335 53.36 137.373 53.568C137.415 53.7707 137.453 53.9733 137.485 54.176C137.538 53.9733 137.594 53.7707 137.653 53.568C137.711 53.36 137.773 53.1467 137.837 52.928L139.365 48.152C139.391 48.056 139.445 47.9787 139.525 47.92C139.61 47.856 139.711 47.824 139.829 47.824H140.581C140.703 47.824 140.807 47.856 140.893 47.92C140.978 47.9787 141.034 48.056 141.061 48.152L142.549 52.928C142.613 53.1467 142.671 53.36 142.725 53.568C142.783 53.776 142.837 53.984 142.885 54.192C142.922 53.9893 142.962 53.784 143.005 53.576C143.047 53.368 143.098 53.152 143.157 52.928L144.541 48.176C144.573 48.08 144.631 48 144.717 47.936C144.802 47.872 144.906 47.84 145.029 47.84H146.325ZM148.426 50.976C148.426 49.856 148.288 48.7627 148.01 47.696C147.733 46.6293 147.333 45.6213 146.81 44.672C146.762 44.576 146.733 44.4907 146.722 44.416C146.712 44.3413 146.714 44.2773 146.73 44.224C146.752 44.1653 146.781 44.1173 146.818 44.08C146.861 44.0427 146.906 44.008 146.954 43.976L147.722 43.504C148.117 44.1173 148.453 44.728 148.73 45.336C149.008 45.944 149.234 46.5573 149.41 47.176C149.586 47.7893 149.714 48.4133 149.794 49.048C149.874 49.6773 149.914 50.32 149.914 50.976C149.914 51.6373 149.874 52.2853 149.794 52.92C149.714 53.5493 149.586 54.1733 149.41 54.792C149.234 55.4053 149.008 56.0133 148.73 56.616C148.453 57.224 148.117 57.8347 147.722 58.448L146.954 57.976C146.906 57.944 146.861 57.9093 146.818 57.872C146.781 57.8347 146.752 57.7867 146.73 57.728C146.714 57.6747 146.712 57.6107 146.722 57.536C146.733 57.4613 146.762 57.376 146.81 57.28C147.333 56.336 147.733 55.3307 148.01 54.264C148.288 53.192 148.426 52.096 148.426 50.976Z" fill="#E4DCDC"/>
</svg>
