<svg width="32" height="32" viewBox="0 0 32 32" fill="none" xmlns="http://www.w3.org/2000/svg">
<circle cx="16" cy="16" r="16" fill="url(#paint0_linear_2_141)"/>
<circle cx="16" cy="16" r="16" fill="url(#paint1_radial_2_141)"/>
<path d="M16 23.3438C15.9204 23.3425 15.8424 23.321 15.7734 23.2813C15.6875 23.2422 13.75 22.1406 11.7813 20.375C9.08594 17.9453 7.71875 15.5313 7.71875 13.1875C7.71804 12.2178 8.02844 11.2735 8.6043 10.4933C9.18017 9.71308 9.99114 9.13821 10.918 8.85315C11.8449 8.5681 12.8387 8.58791 13.7535 8.90966C14.6682 9.2314 15.4557 9.83813 16 10.6406C16.5443 9.83813 17.3318 9.2314 18.2465 8.90966C19.1613 8.58791 20.1551 8.5681 21.082 8.85315C22.0089 9.13821 22.8198 9.71308 23.3957 10.4933C23.9716 11.2735 24.282 12.2178 24.2813 13.1875C24.2813 15.5313 22.9141 17.9453 20.2188 20.375C18.25 22.1406 16.3125 23.2422 16.2266 23.2813C16.1576 23.321 16.0796 23.3425 16 23.3438ZM12.25 9.59377C11.2969 9.59377 10.3828 9.97239 9.70884 10.6464C9.03488 11.3203 8.65625 12.2344 8.65625 13.1875C8.65625 17.6641 14.7344 21.5703 16 22.3281C17.2656 21.5703 23.3438 17.6641 23.3438 13.1875C23.3456 12.3554 23.0586 11.5484 22.5317 10.9043C22.0048 10.2602 21.2708 9.81889 20.4548 9.6557C19.6388 9.4925 18.7915 9.61753 18.0574 10.0094C17.3234 10.4014 16.7481 11.0359 16.4297 11.8047C16.3961 11.8913 16.337 11.9658 16.2604 12.0182C16.1837 12.0707 16.0929 12.0988 16 12.0988C15.9071 12.0988 15.8163 12.0707 15.7397 12.0182C15.663 11.9658 15.6039 11.8913 15.5703 11.8047C15.2971 11.1494 14.836 10.5897 14.2451 10.1963C13.6542 9.80277 12.9599 9.59312 12.25 9.59377Z" fill="white"/>
<defs>
<linearGradient id="paint0_linear_2_141" x1="16" y1="0" x2="16" y2="32" gradientUnits="userSpaceOnUse">
<stop stop-color="#A61473"/>
<stop offset="1" stop-color="#05F2F2"/>
</linearGradient>
<radialGradient id="paint1_radial_2_141" cx="0" cy="0" r="1" gradientUnits="userSpaceOnUse" gradientTransform="translate(13 9.5) rotate(67.0113) scale(17.9234)">
<stop offset="0.0480527" stop-color="white" stop-opacity="0.19"/>
<stop offset="1" stop-color="white" stop-opacity="0"/>
</radialGradient>
</defs>
</svg>
