<svg width="696" height="657" viewBox="0 0 696 657" fill="none" xmlns="http://www.w3.org/2000/svg">
<path d="M195.634 143.307C213.402 86.4114 238.878 43.3962 268.367 20.3375C283.105 8.81378 298.455 2.57788 313.85 1.62802C329.242 0.678272 344.719 5.0107 359.715 14.6916C389.728 34.0657 416.256 73.8555 435.448 128.468C454.634 183.065 465.482 249.615 466.432 318.603C467.382 387.59 458.384 455.463 440.732 512.515C423.077 569.58 397.687 612.841 368.242 636.183C353.527 647.848 338.188 654.232 322.795 655.329C307.405 656.426 291.92 652.242 276.906 642.706C246.856 623.621 220.25 584.087 200.95 529.66" stroke="white" stroke-linecap="round" stroke-dasharray="10 10"/>
<path d="M85.1231 260.89C63.4604 267.647 45.6098 275.164 31.9755 283.194C18.3334 291.227 8.95425 299.748 4.17534 308.492C-0.587049 317.206 -0.697183 325.983 3.70353 334.615C8.11986 343.277 17.0982 351.827 30.5831 359.976C57.5497 376.272 101.218 390.174 156.486 400.017C211.742 409.859 276.249 415.228 342.416 415.49C408.582 415.752 473.643 410.896 529.942 401.496C586.251 392.094 631.412 378.544 660.14 362.462C674.506 354.421 684.418 345.938 689.78 337.298C695.126 328.684 695.954 319.908 692.146 311.18C688.322 302.419 679.882 293.836 667.12 285.701C654.366 277.571 637.341 269.917 616.421 262.993" stroke="white" stroke-dasharray="10 10"/>
<circle cx="461" cy="408" r="25" fill="url(#paint0_linear_2_602)"/>
<path d="M461 383L466.613 400.275H484.776L470.082 410.951L475.695 428.225L461 417.549L446.305 428.225L451.918 410.951L437.224 400.275H455.387L461 383Z" fill="url(#paint1_radial_2_602)"/>
<path d="M461 383L466.613 400.275H484.776L470.082 410.951L475.695 428.225L461 417.549L446.305 428.225L451.918 410.951L437.224 400.275H455.387L461 383Z" fill="url(#paint2_radial_2_602)"/>
<defs>
<linearGradient id="paint0_linear_2_602" x1="450" y1="392" x2="475.5" y2="433" gradientUnits="userSpaceOnUse">
<stop stop-color="#A61473"/>
<stop offset="1" stop-color="#05F2F2"/>
</linearGradient>
<radialGradient id="paint1_radial_2_602" cx="0" cy="0" r="1" gradientUnits="userSpaceOnUse" gradientTransform="translate(461.352 406.592) rotate(59.4703) scale(15.9426)">
<stop stop-color="#A61473"/>
<stop offset="0.960891" stop-color="#05F2F2"/>
</radialGradient>
<radialGradient id="paint2_radial_2_602" cx="0" cy="0" r="1" gradientUnits="userSpaceOnUse" gradientTransform="translate(454.5 402) rotate(50.1944) scale(23.4308)">
<stop stop-color="white"/>
<stop offset="1" stop-color="white" stop-opacity="0"/>
</radialGradient>
</defs>
</svg>
