<svg width="25" height="24" viewBox="0 0 25 24" fill="none" xmlns="http://www.w3.org/2000/svg">
<path d="M21.7208 7.40324L15.4517 6.82181L12.9614 1.03915C12.787 0.634247 12.2129 0.634247 12.0386 1.03915L9.5483 6.82176L3.27918 7.40324C2.84019 7.44393 2.66282 7.98993 2.99399 8.28089L7.72406 12.4362L6.33979 18.5782C6.24286 19.0083 6.70734 19.3457 7.08637 19.1206L12.5 15.9061L17.9136 19.1206C18.2927 19.3457 18.7571 19.0083 18.6602 18.5782L17.2758 12.4362L22.006 8.28089C22.3371 7.98993 22.1597 7.44393 21.7208 7.40324Z" fill="#FFDC64"/>
<path d="M13.8669 3.14197L12.9613 1.03915C12.7869 0.634247 12.2129 0.634247 12.0385 1.03915L9.54825 6.82176L3.27918 7.40324C2.84019 7.44393 2.66282 7.98993 2.99399 8.28089L7.72406 12.4362L6.33979 18.5782C6.24286 19.0083 6.70734 19.3457 7.08637 19.1206L7.80689 18.6928C8.9881 11.0465 12.3088 5.4336 13.8669 3.14197Z" fill="#FFC850"/>
</svg>
